<?xml version="1.0" standalone="no"?>
<!DOCTYPE svg PUBLIC "-//W3C//DTD SVG 20010904//EN"
 "http://www.w3.org/TR/2001/REC-SVG-20010904/DTD/svg10.dtd">
<svg version="1.0" xmlns="http://www.w3.org/2000/svg"
 width="313.000000pt" height="313.000000pt" viewBox="0 0 313.000000 313.000000"
 preserveAspectRatio="xMidYMid meet">
<metadata>
Created by potrace 1.14, written by Peter Selinger 2001-2017
</metadata>
<g transform="translate(0.000000,313.000000) scale(0.100000,-0.100000)"
fill="#000000" stroke="none">
<path d="M1355 3115 c-136 -21 -148 -24 -230 -49 -214 -65 -387 -156 -550
-290 -73 -60 -191 -178 -231 -232 -16 -21 -31 -41 -35 -44 -5 -5 -48 -71 -100
-155 -85 -137 -162 -358 -193 -555 -17 -109 -15 -375 3 -480 82 -468 370 -878
779 -1108 50 -29 93 -52 96 -52 2 0 25 -10 52 -22 27 -12 51 -23 54 -23 3 -1
50 -16 105 -33 164 -52 292 -70 484 -67 172 2 293 20 434 64 440 136 799 459
979 881 37 87 74 195 82 240 2 14 9 43 14 65 20 73 27 159 27 310 -1 186 -13
282 -59 446 -39 141 -135 334 -234 473 -75 105 -247 276 -355 353 -179 127
-440 238 -632 269 -16 2 -46 7 -65 10 -73 12 -347 11 -425 -1z"/>
</g>
</svg>
